<svg width="1600" height="900" viewBox="0 0 1600 900" fill="none" xmlns="http://www.w3.org/2000/svg">
  <defs>
    <linearGradient id="bg3" x1="0" y1="0" x2="1" y2="1">
      <stop offset="0" stop-color="#536F8A"/>
      <stop offset="0.48" stop-color="#6988A4"/>
      <stop offset="1" stop-color="#89A8C1"/>
    </linearGradient>
  </defs>
  <rect width="1600" height="900" fill="url(#bg3)"/>
  <path d="M0 610C170 560 295 540 452 564C596 586 694 650 854 654C1042 659 1160 562 1348 560C1462 559 1548 584 1600 610V900H0V610Z" fill="#1F3349" fill-opacity="0.58"/>
  <g stroke="white" stroke-opacity="0.28" stroke-width="3">
    <path d="M140 380C250 330 360 330 470 380"/>
    <path d="M520 350C620 300 720 300 820 350"/>
    <path d="M890 390C1000 340 1110 340 1220 390"/>
  </g>
  <g fill="white" fill-opacity="0.82">
    <circle cx="360" cy="518" r="68"/>
    <rect x="310" y="580" width="100" height="152" rx="44"/>
    <circle cx="540" cy="484" r="58"/>
    <rect x="495" y="538" width="90" height="146" rx="40"/>
    <circle cx="720" cy="520" r="74"/>
    <rect x="664" y="588" width="112" height="168" rx="48"/>
    <circle cx="918" cy="498" r="64"/>
    <rect x="868" y="558" width="100" height="156" rx="44"/>
    <circle cx="1100" cy="516" r="70"/>
    <rect x="1048" y="580" width="104" height="160" rx="46"/>
  </g>
</svg>
